<?xml version="1.0" encoding="UTF-8" standalone="no"?>
<!-- Created with Inkscape (http://www.inkscape.org/) -->

<svg
   xmlns:dc="http://purl.org/dc/elements/1.1/"
   xmlns:cc="http://creativecommons.org/ns#"
   xmlns:rdf="http://www.w3.org/1999/02/22-rdf-syntax-ns#"
   xmlns:svg="http://www.w3.org/2000/svg"
   xmlns="http://www.w3.org/2000/svg"
   xmlns:sodipodi="http://sodipodi.sourceforge.net/DTD/sodipodi-0.dtd"
   xmlns:inkscape="http://www.inkscape.org/namespaces/inkscape"
   width="128"
   height="128"
   id="svg3216"
   version="1.1"
   inkscape:version="0.48.4 r9939"
   sodipodi:docname="bulb.svg">
  <defs
     id="defs3218" />
  <sodipodi:namedview
     id="base"
     pagecolor="#ffffff"
     bordercolor="#ffffff"
     borderopacity="0.0"
     opacity="0.0"
     inkscape:pageopacity="0.0"
     inkscape:pageshadow="2"
     inkscape:zoom="3.959798"
     inkscape:cx="111.19976"
     inkscape:cy="70.877126"
     inkscape:document-units="px"
     inkscape:current-layer="layer1"
     showgrid="false"
     fit-margin-top="0"
     fit-margin-left="0"
     fit-margin-right="0"
     fit-margin-bottom="0"
     inkscape:window-width="1366"
     inkscape:window-height="721"
     inkscape:window-x="-4"
     inkscape:window-y="-4"
     inkscape:window-maximized="1" />
  <metadata
     id="metadata3221">
    <rdf:RDF>
      <cc:Work
         rdf:about="">
        <dc:format>image/svg+xml</dc:format>
        <dc:type
           rdf:resource="http://purl.org/dc/dcmitype/StillImage" />
        <dc:title />
      </cc:Work>
    </rdf:RDF>
  </metadata>
  <g
     inkscape:label="Layer 1"
     inkscape:groupmode="layer"
     id="layer1"
     transform="translate(-263.80024,-338.86872)">
    <path
       style="fill:#ffffff;fill-opacity:1;stroke:none"
       d="m -0.17640313,63.94823 0,-64.14468617 64.14468613,0 64.144687,0 0,64.14468617 0,64.14469 -64.144687,0 -64.14468613,0 0,-64.14469 z M 74.145158,119.56388 c 0.797245,-0.34587 1.549072,-1.84077 1.307913,-2.60059 -0.08483,-0.26728 -0.459178,-0.57145 -0.831883,-0.67595 -0.372706,-0.10449 -5.291159,-0.18999 -10.929896,-0.18999 -8.318468,0 -10.330995,0.0654 -10.669737,0.3466 -0.581981,0.48315 -0.535817,1.93419 0.08116,2.55117 0.474405,0.4744 0.83386,0.60956 2.279267,0.85698 0.34724,0.0594 4.552,0.0879 9.343911,0.0632 6.186765,-0.0319 8.91744,-0.13374 9.419261,-0.35144 z m 0.934803,-7.39234 c 0,-1.82049 -0.06446,-2.09625 -0.619868,-2.65165 -0.450487,-0.45049 -0.894533,-0.61987 -1.625057,-0.61987 -1.514166,0 -2.27919,-0.39177 -2.691367,-1.37825 -0.597771,-1.43066 -0.984048,-1.52594 -6.186493,-1.52594 -4.057947,0 -4.774281,0.0598 -5.366435,0.44776 -0.375855,0.24627 -0.683373,0.66418 -0.683373,0.92869 0,0.81258 -1.185018,1.52774 -2.53146,1.52774 -1.968227,0 -2.374402,0.51292 -2.482059,3.13439 l -0.08907,2.16891 11.137591,0 11.137593,0 0,-2.03178 z m -5.757647,-7.55788 c 0.424557,-0.20485 0.743952,-0.61081 0.84596,-1.07525 0.192537,-0.87661 1.322006,-1.45692 2.835652,-1.45692 0.627757,0 1.16589,-0.1819 1.52334,-0.51492 0.484449,-0.45133 0.552695,-0.77875 0.552695,-2.651647 l 0,-2.136736 -11.111678,0 -11.111678,0 0,2.031783 c 0,1.82049 0.06446,2.09625 0.619868,2.65165 0.425415,0.42542 0.920541,0.62777 1.578363,0.64504 1.596437,0.0419 2.195652,0.31747 2.64917,1.21821 0.583735,1.15936 0.787043,1.32643 1.895153,1.5574 1.527823,0.31844 8.930281,0.11394 9.723155,-0.26861 l 0,0 z m 6.767799,-12.128621 0,-2.525381 -12.12183,0 -12.12183,0 0,2.525381 0,2.525381 12.12183,0 12.12183,0 0,-2.525381 z m 1.010153,-6.944799 0,-2.65165 -13.131983,0 -13.131983,0 0,2.65165 0,2.651651 13.131983,0 13.131983,0 0,-2.651651 z m 2.260787,-6.755395 C 81.11668,71.623806 84.113146,64.362206 88.90458,55.657178 93.01153,48.195717 93.995337,45.019489 94.01151,39.169438 94.030375,32.350949 92.240139,26.979463 88.312914,22.071037 84.82246,17.708508 78.254595,13.216187 73.691001,12.069868 70.081635,11.163239 58.342615,11.150891 54.467255,12.049647 c -2.055698,0.476749 -4.668652,1.728503 -7.545296,3.614628 -6.747263,4.42397 -10.901182,10.186193 -12.417828,17.225732 -0.355372,1.649473 -0.456109,3.159762 -0.437681,6.562024 0.03499,6.460403 0.29004,7.18768 7.040801,20.076782 1.454955,2.777919 3.211959,6.42358 3.904451,8.101468 1.276096,3.091933 3.60279,10.452476 3.92514,12.417255 l 0.176087,1.073287 14.837714,0 14.837714,0 0.572696,-2.335978 z"
       id="path2991"
       inkscape:connector-curvature="0"
       transform="translate(284.36369,304.16315)" />
    <g
       id="g3004"
       transform="translate(-69.447987,-10.354064)">
      <path
         style="fill:#fefefe"
         d="m 333.24823,413.22278 0,-64 64,0 64,0 0,64 0,64 -64,0 -64,0 0,-64 z"
         id="path3020"
         inkscape:connector-curvature="0" />
      <path
         style="fill:#cfcfcf"
         d="m 390.24823,453.88339 -4.5,-2.45625 -1.29449,-9.35218 c -0.71197,-5.1437 -1.89633,-10.70218 -2.63191,-12.35218 -0.73559,-1.65 -1.90349,-4.8 -2.59536,-7 -0.69186,-2.2 -3.77415,-8.95 -6.84953,-15 -5.484,-10.78832 -5.59173,-11.16357 -5.59816,-19.5 -0.008,-9.76267 1.69211,-13.98332 8.13472,-20.20065 6.20969,-5.99256 12.37952,-8.27981 22.33473,-8.27981 9.95521,0 16.12504,2.28725 22.33473,8.27981 6.44236,6.21709 8.14219,10.43802 8.1351,20.20065 -0.006,8.2434 -0.16014,8.80188 -5.10668,18.5 -2.80528,5.5 -6.13561,12.925 -7.40072,16.5 -1.26512,3.575 -2.63097,6.95 -3.03523,7.5 -0.40425,0.55 -1.30624,5.38906 -2.00441,10.75348 -1.25309,9.62814 -1.31536,9.7807 -4.8461,11.87227 -5.48025,3.24645 -9.82643,3.40063 -15.07669,0.53486 z"
         id="path3018"
         inkscape:connector-curvature="0" />
      <path
         style="fill:#adadad"
         d="m 389.96893,452.92851 c -2.95911,-1.72704 -3.72668,-2.74841 -3.53684,-4.70633 0.13334,-1.37533 -0.0273,-2.95033 -0.35692,-3.5 -0.32965,-0.54967 -0.91985,-3.81271 -1.31155,-7.2512 -0.3917,-3.43848 -1.08284,-6.48087 -1.53587,-6.76086 -0.45303,-0.27998 -1.83006,-3.54168 -3.06007,-7.2482 -1.23001,-3.70653 -4.64007,-11.64322 -7.57791,-17.63711 -4.82346,-9.84096 -5.34059,-11.53829 -5.33177,-17.5 0.0239,-16.13111 12.90656,-28.2785 29.99023,-28.2785 17.07689,0 29.96633,12.14801 29.99023,28.26512 0.009,5.87041 -0.52542,7.68306 -4.89964,16.62788 -2.70017,5.52157 -6.10042,13.34099 -7.55611,17.37649 -1.45568,4.0355 -3.02808,7.80295 -3.49422,8.37212 -0.46613,0.56917 -1.17207,3.73486 -1.56876,7.03486 -0.39668,3.3 -0.98597,6.44973 -1.30952,6.9994 -0.32356,0.54967 -0.4782,2.12467 -0.34364,3.5 0.19442,1.98714 -0.57251,2.96261 -3.73496,4.7506 -4.97401,2.81221 -9.49226,2.79828 -14.36268,-0.0443 z"
         id="path3016"
         inkscape:connector-curvature="0" />
      <path
         style="fill:#8c8c8c"
         d="m 389.49823,452.04788 c -3.27925,-2.02729 -4.1452,-4.1538 -2.18486,-5.36536 0.69463,-0.42931 0.44919,-1.33892 -0.70561,-2.61496 -1.39918,-1.54608 -1.53396,-2.33582 -0.6423,-3.7636 0.88685,-1.42007 0.77448,-2.1609 -0.52484,-3.46022 -1.35587,-1.35587 -1.43376,-2.00482 -0.43296,-3.60736 1.01969,-1.63278 0.92709,-2.111 -0.56321,-2.90858 -0.98094,-0.52499 -2.557,-3.40823 -3.50234,-6.4072 -0.94534,-2.99897 -4.28198,-10.57033 -7.41474,-16.82525 -5.42235,-10.82634 -5.69509,-11.7328 -5.67848,-18.87257 0.0203,-8.70269 1.95191,-13.30169 8.06461,-19.20065 5.89898,-5.69273 12.42359,-8.20065 21.33473,-8.20065 8.91114,0 15.43575,2.50792 21.33473,8.20065 6.1127,5.89896 8.04436,10.49796 8.06461,19.20065 0.0166,7.13977 -0.25613,8.04623 -5.67848,18.87257 -3.13277,6.25492 -6.4694,13.82628 -7.41474,16.82525 -0.94534,2.99897 -2.5214,5.88221 -3.50235,6.4072 -1.49029,0.79758 -1.58289,1.2758 -0.5632,2.90858 1.0008,1.60254 0.92291,2.25149 -0.43296,3.60736 -1.29932,1.29932 -1.41169,2.04015 -0.52484,3.46022 0.89166,1.42778 0.75688,2.21752 -0.6423,3.7636 -1.1548,1.27604 -1.40025,2.18565 -0.70561,2.61496 3.72587,2.30272 -3.53559,7.58993 -10.24202,7.45741 -2.32226,-0.0459 -5.64278,-0.97922 -7.44284,-2.09205 z"
         id="path3014"
         inkscape:connector-curvature="0" />
      <path
         style="fill:#6e6e6e"
         d="m 390.44973,452.07702 c -1.938,-1.24092 -3.16973,-2.78069 -2.9863,-3.73315 0.46845,-2.43249 19.104,-2.41771 19.57259,0.0155 0.43338,2.25036 -5.69518,5.86751 -9.90582,5.84653 -1.86009,-0.009 -4.86629,-0.96727 -6.68047,-2.12891 z m -4.4472,-9.10424 c -1.18767,-3.2296 0.36964,-3.75 11.22204,-3.75 10.84767,0 12.41908,0.52181 11.29302,3.75 -0.31255,0.89602 -3.49718,1.25 -11.24571,1.25 -7.73591,0 -10.94038,-0.35544 -11.26935,-1.25 z m -1,-7 c -1.20443,-3.27518 0.34311,-3.75 12.22204,-3.75 11.87417,0 13.43501,0.47614 12.29302,3.75 -0.31562,0.90482 -3.69718,1.25 -12.24571,1.25 -8.53591,0 -11.9371,-0.34651 -12.26935,-1.25 z m -1.46297,-7 c -0.52445,-0.6875 -1.98864,-4.175 -3.25376,-7.75 -1.26511,-3.575 -4.54113,-10.97899 -7.28003,-16.45332 -4.39348,-8.78135 -4.97563,-10.68167 -4.94415,-16.1392 0.082,-14.20503 9.14406,-24.55472 23.96017,-27.36454 17.993,-3.4123 34.31035,9.56292 34.41305,27.36454 0.0315,5.45753 -0.55067,7.35785 -4.94415,16.1392 -2.7389,5.47433 -6.01492,12.87832 -7.28003,16.45332 -1.26512,3.575 -2.72931,7.0625 -3.25377,7.75 -0.67498,0.88483 -4.6798,1.25 -13.70866,1.25 -9.02886,0 -13.03368,-0.36517 -13.70867,-1.25 z"
         id="path3012"
         inkscape:connector-curvature="0" />
      <path
         style="fill:#535353"
         d="m 391.00802,451.92851 c -6.63087,-3.91046 -4.66743,-5.70573 6.24021,-5.70573 10.99715,0 12.91645,1.82589 6.04418,5.75 -4.88191,2.7876 -7.49845,2.77817 -12.28439,-0.0443 z m -4.41046,-9.23777 c -1.1087,-2.88923 1.16824,-3.5489 11.23883,-3.25612 9.14912,0.26599 9.91184,0.44206 9.91184,2.28816 0,1.85163 -0.76173,2.02116 -10.26789,2.28518 -8.66831,0.24075 -10.36367,0.0356 -10.88278,-1.31722 z m -1.00086,-7.00225 c -1.12392,-2.92888 1.17807,-3.54049 12.23703,-3.25121 10.15267,0.26557 10.9145,0.4251 10.9145,2.2855 0,1.86494 -0.76098,2.01911 -11.26875,2.28293 -9.57797,0.24047 -11.36088,0.0428 -11.88278,-1.31722 z m -1.03748,-6.25235 c -0.65396,-0.4158 -2.39479,-4.12141 -3.86851,-8.23468 -1.47373,-4.11328 -4.72375,-11.48399 -7.22227,-16.37937 -5.13802,-10.067 -6.12375,-15.66448 -4.18311,-23.75396 1.76829,-7.37108 10.21782,-15.95267 17.9755,-18.25645 6.7917,-2.01692 13.1831,-2.01692 19.9748,0 7.75768,2.30378 16.2072,10.88537 17.9755,18.25645 1.94064,8.08948 0.95491,13.68696 -4.18311,23.75396 -2.49852,4.89538 -5.74854,12.26609 -7.22227,16.37937 -1.47372,4.11327 -3.21456,7.81888 -3.86851,8.23468 -0.65396,0.41581 -6.36401,0.75601 -12.68901,0.75601 -6.325,0 -12.03505,-0.3402 -12.68901,-0.75601 z"
         id="path3010"
         inkscape:connector-curvature="0" />
      <path
         style="fill:#2f2f2f"
         d="m 390.99823,451.46455 c -5.10386,-3.1644 -3.51642,-4.24177 6.25,-4.24177 9.82598,0 11.4346,1.13063 6.09571,4.28439 -3.67717,2.17216 -8.80204,2.15447 -12.34571,-0.0426 z m -4.23329,-9.21473 c -0.35391,-0.57264 -0.0187,-1.28092 0.74492,-1.57394 2.42689,-0.93129 20.23837,-0.01 20.23837,1.0469 0,1.38018 -20.14333,1.88612 -20.98329,0.52704 z m -1.00129,-7.00209 c -0.3532,-0.57149 -0.0207,-1.27755 0.7388,-1.56901 2.44696,-0.93899 22.24578,-0.01 22.24578,1.04406 0,1.38249 -22.14204,1.8882 -22.98458,0.52495 z m -2.38646,-8.24583 c -0.46403,-1.25352 -1.82413,-4.92697 -3.02246,-8.16323 -1.19833,-3.23627 -4.30002,-9.96829 -6.89264,-14.96006 -4.32336,-8.32407 -4.70421,-9.63085 -4.59734,-15.77444 0.27427,-15.7667 11.59359,-26.22537 28.38348,-26.22537 16.79622,0 28.1095,10.45819 28.38348,26.23817 0.10613,6.11273 -0.27872,7.46467 -4.3151,15.15855 -2.43738,4.64599 -5.88003,12.27226 -7.65033,16.94726 l -3.21872,8.5 -13.11334,0.27912 c -12.85336,0.27359 -13.13008,0.23393 -13.95703,-2 z"
         id="path3008"
         inkscape:connector-curvature="0" />
      <path
         style="fill:#020202"
         d="m 390.74823,450.3667 -3,-1.64392 4.75,-0.30479 c 2.6125,-0.16764 6.8875,-0.16764 9.5,0 l 4.75,0.30479 -3.40364,1.75 c -4.13827,2.12772 -8.58829,2.09024 -12.59636,-0.10608 z m 1.25,-8.88116 c 2.8875,-0.202 7.6125,-0.202 10.5,0 2.8875,0.202 0.525,0.36727 -5.25,0.36727 -5.775,0 -8.1375,-0.16527 -5.25,-0.36727 z m -0.5,-7.00175 c 3.1625,-0.19845 8.3375,-0.19845 11.5,0 3.1625,0.19845 0.575,0.36082 -5.75,0.36082 -6.325,0 -8.9125,-0.16237 -5.75,-0.36082 z m -8.77736,-11.51101 c -0.92846,-2.8875 -4.05437,-9.975 -6.94647,-15.75 -6.14832,-12.27708 -6.96572,-15.32644 -6.05728,-22.5973 3.00083,-24.01784 38.91055,-30.25196 51.97588,-9.02331 2.6461,4.2994 3.00361,5.78521 3.00767,12.5 0.004,7.21383 -0.26988,8.15439 -5.13775,17.62061 -2.82829,5.5 -6.14142,12.8125 -7.36251,16.25 l -2.22016,6.25 -12.78564,0 -12.78565,0 -1.68809,-5.25 z"
         id="path3006"
         inkscape:connector-curvature="0" />
    </g>
  </g>
</svg>
