<?xml version="1.0" encoding="UTF-8" standalone="no"?>
<!-- Created with Inkscape (http://www.inkscape.org/) -->

<svg
   xmlns:dc="http://purl.org/dc/elements/1.1/"
   xmlns:cc="http://creativecommons.org/ns#"
   xmlns:rdf="http://www.w3.org/1999/02/22-rdf-syntax-ns#"
   xmlns:svg="http://www.w3.org/2000/svg"
   xmlns="http://www.w3.org/2000/svg"
   xmlns:sodipodi="http://sodipodi.sourceforge.net/DTD/sodipodi-0.dtd"
   xmlns:inkscape="http://www.inkscape.org/namespaces/inkscape"
   width="128"
   height="136.52359"
   id="svg2"
   version="1.1"
   inkscape:version="0.48.4 r9939"
   sodipodi:docname="cube.svg"
   inkscape:export-filename="E:\Katarinka\leanetic\SKIN_8\cube.png"
   inkscape:export-xdpi="90"
   inkscape:export-ydpi="90">
  <defs
     id="defs4">
    <inkscape:perspective
       sodipodi:type="inkscape:persp3d"
       inkscape:vp_x="0 : 68.261795 : 1"
       inkscape:vp_y="0 : 1000 : 0"
       inkscape:vp_z="128 : 68.261795 : 1"
       inkscape:persp3d-origin="64 : 45.507863 : 1"
       id="perspective2995" />
  </defs>
  <sodipodi:namedview
     id="base"
     pagecolor="#ffffff"
     bordercolor="#ffffff"
     borderopacity="0.0"
     opacity="0.0"
     inkscape:pageopacity="0"
     inkscape:pageshadow="2"
     inkscape:zoom="1.979899"
     inkscape:cx="59.692014"
     inkscape:cy="71.967218"
     inkscape:document-units="px"
     inkscape:current-layer="layer1"
     showgrid="false"
     inkscape:window-width="1366"
     inkscape:window-height="721"
     inkscape:window-x="-4"
     inkscape:window-y="-4"
     inkscape:window-maximized="1"
     fit-margin-top="0"
     fit-margin-left="0"
     fit-margin-right="0"
     fit-margin-bottom="0" />
  <metadata
     id="metadata7">
    <rdf:RDF>
      <cc:Work
         rdf:about="">
        <dc:format>image/svg+xml</dc:format>
        <dc:type
           rdf:resource="http://purl.org/dc/dcmitype/StillImage" />
        <dc:title></dc:title>
      </cc:Work>
    </rdf:RDF>
  </metadata>
  <g
     inkscape:label="Layer 1"
     inkscape:groupmode="layer"
     id="layer1"
     transform="translate(-124.89434,-33.615396)">
    <g
       id="g3266"
       transform="matrix(0.17066444,0,0,0.17066444,160.29797,91.107143)">
      <path
         style="fill:#000000"
         d="m -20.65353,325.96301 -186.71258,-137.16644 0.21258,-200.41668 0.21258,-200.41667 187.25,-62.41666 187.25,-62.41666 187.25,62.41666 187.25,62.41666 0.21331,200.41667 0.2133,200.41668 -187.12629,137 c -102.91946,75.35 -187.61545,137.0749 -188.21331,137.16644 -0.59785,0.0915 -85.10767,-61.55845 -187.79959,-137 z"
         id="path3280"
         inkscape:connector-curvature="0" />
      <path
         style="fill:#000000"
         d="m -20.65353,325.96301 -186.71258,-137.16644 0.21258,-200.41668 0.21258,-200.41667 187.25,-62.41666 187.25,-62.41666 187.25,62.41666 187.25,62.41666 0.21331,200.41667 0.2133,200.41668 -187.12629,137 c -102.91946,75.35 -187.61545,137.0749 -188.21331,137.16644 -0.59785,0.0915 -85.10767,-61.55845 -187.79959,-137 z M 330.09752,-86.95343 c 88.70955,-54.5875 161.08706,-99.45411 160.83891,-99.70357 -0.24816,-0.24947 -73.10959,-22.81017 -161.91429,-50.13489 L 167.55905,-286.4732 6.09596,-236.79189 c -88.8047,27.32472 -161.66605,49.88542 -161.91412,50.13489 -0.62291,0.62643 321.54534,198.88117 323.2514,198.92127 0.7558,0.0178 73.95473,-44.6302 162.66428,-99.2177 z"
         id="path3278"
         inkscape:connector-curvature="0" />
      <path
         style="fill:#000000"
         d="m -19.96608,325.81154 -186.97487,-137.27168 -0.25245,-200.03717 -0.25245,-200.03716 187.50245,-62.50181 187.50245,-62.50181 187.50245,62.50181 187.50245,62.50181 -0.25245,200.03147 -0.25245,200.03147 -183.5,134.45859 c -100.925,73.95222 -185.31131,135.72703 -187.52513,137.27737 l -4.02512,2.81879 -186.97488,-137.27168 z m 350.0636,-412.76497 c 88.70955,-54.5875 161.08706,-99.45411 160.83891,-99.70357 -0.24816,-0.24947 -73.10959,-22.81017 -161.91429,-50.13489 L 167.55905,-286.4732 6.09596,-236.79189 c -88.8047,27.32472 -161.66605,49.88542 -161.91412,50.13489 -0.62291,0.62643 321.54534,198.88117 323.2514,198.92127 0.7558,0.0178 73.95473,-44.6302 162.66428,-99.2177 z"
         id="path3276"
         inkscape:connector-curvature="0" />
      <path
         style="fill:#000000"
         d="m -19.96608,325.81154 -186.97487,-137.27168 -0.25245,-200.03717 -0.25245,-200.03716 187.50245,-62.50181 187.50245,-62.50181 187.50245,62.50181 187.50245,62.50181 -0.25245,200.03147 -0.25245,200.03147 -183.5,134.45859 c -100.925,73.95222 -185.31131,135.72703 -187.52513,137.27737 l -4.02512,2.81879 -186.97488,-137.27168 z m 162.52513,-112.51329 0,-149.99832 -150,-100.00336 -150,-100.00336 0,149.99999 0,149.99999 149.75,99.9342 c 82.3625,54.96381 149.8625,99.96457 150,100.00169 0.1375,0.0371 0.25,-67.43175 0.25,-149.93083 z M 330.09752,-86.95343 c 88.70955,-54.5875 161.08706,-99.45411 160.83891,-99.70357 -0.24816,-0.24947 -73.10959,-22.81017 -161.91429,-50.13489 L 167.55905,-286.4732 6.09596,-236.79189 c -88.8047,27.32472 -161.66605,49.88542 -161.91412,50.13489 -0.62291,0.62643 321.54534,198.88117 323.2514,198.92127 0.7558,0.0178 73.95473,-44.6302 162.66428,-99.2177 z"
         id="path3274"
         inkscape:connector-curvature="0" />
      <path
         style="fill:#000000"
         d="m -19.96608,325.81154 -186.97487,-137.27168 -0.25245,-200.03717 -0.25245,-200.03716 187.50245,-62.50181 187.50245,-62.50181 187.50245,62.50181 187.50245,62.50181 -0.25245,200.03147 -0.25245,200.03147 -183.5,134.45859 c -100.925,73.95222 -185.31131,135.72703 -187.52513,137.27737 l -4.02512,2.81879 -186.97488,-137.27168 z m 162.52513,-112.51329 0,-149.99832 -150,-100.00336 -150,-100.00336 0,149.99999 0,149.99999 149.75,99.9342 c 82.3625,54.96381 149.8625,99.96457 150,100.00169 0.1375,0.0371 0.25,-67.43175 0.25,-149.93083 z m 255.5,13.73516 94,-62.31885 0.25324,-150.71283 0.25323,-150.71284 -150.00323,100.00552 -150.00324,100.00552 0,149.9597 0,149.95969 55.75,-36.93354 c 30.6625,-20.31344 98.05,-64.97701 149.75,-99.25237 z M 330.09752,-86.95343 c 88.70955,-54.5875 161.08706,-99.45411 160.83891,-99.70357 -0.24816,-0.24947 -73.10959,-22.81017 -161.91429,-50.13489 L 167.55905,-286.4732 6.09596,-236.79189 c -88.8047,27.32472 -161.66605,49.88542 -161.91412,50.13489 -0.62291,0.62643 321.54534,198.88117 323.2514,198.92127 0.7558,0.0178 73.95473,-44.6302 162.66428,-99.2177 z"
         id="path3272"
         inkscape:connector-curvature="0" />
      <path
         style="fill:#000000"
         d="m -19.96608,325.81154 -186.97487,-137.27168 -0.25245,-200.03717 -0.25245,-200.03716 187.50245,-62.50181 187.50245,-62.50181 187.50245,62.50181 187.50245,62.50181 -0.25245,200.03147 -0.25245,200.03147 -183.5,134.45859 c -100.925,73.95222 -185.31131,135.72703 -187.52513,137.27737 l -4.02512,2.81879 -186.97488,-137.27168 z m 162.52513,-112.51329 0,-149.99832 -150,-100.00336 -150,-100.00336 0,149.99999 0,149.99999 149.75,99.9342 c 82.3625,54.96381 149.8625,99.96457 150,100.00169 0.1375,0.0371 0.25,-67.43175 0.25,-149.93083 z m 255.5,13.73516 94,-62.31885 0.25324,-150.71283 0.25323,-150.71284 -150.00323,100.00552 -150.00324,100.00552 0,149.9597 0,149.95969 55.75,-36.93354 c 30.6625,-20.31344 98.05,-64.97701 149.75,-99.25237 z M 329.68373,-86.31715 c 89.03143,-54.78754 161.87354,-99.90004 161.87136,-100.25 -0.002,-0.34995 -72.90218,-23.05713 -162,-50.46039 L 167.55905,-286.85165 5.56342,-237.02754 c -89.0976,27.40326 -161.87775,50.18367 -161.73367,50.62312 0.22487,0.68584 322.57491,199.58114 323.60398,199.669 0.20607,0.0176 73.21857,-44.79418 162.25,-99.58173 z"
         id="path3270"
         inkscape:connector-curvature="0" />
      <path
         style="fill:#000000"
         d="m -20.69095,325.02041 -186.75,-137.2067 0,-199.51157 0,-199.51157 187.5,-62.494 187.5,-62.494 187.5,62.494 187.5,62.494 0,199.51546 0,199.51547 -187.01537,136.98753 c -102.85845,75.34315 -187.57095,137.08441 -188.25,137.2028 -0.67905,0.1184 -85.27213,-61.52774 -187.98463,-136.99142 z m 163.22142,-111.97384 -0.0286,-150.25 -147.07703,-98 c -80.89237,-53.9 -148.37951,-98.83169 -149.97142,-99.8482 l -2.89439,-1.8482 0.0288,150.3482 0.0288,150.3482 149.72117,99.7496 c 82.34664,54.86228 149.83367,99.74978 149.97117,99.75 0.1375,2.2e-4 0.23714,-67.6121 0.22142,-150.2496 z m 202.83324,49.25 147.11626,-97.5 0.0395,-150.75168 0.0395,-150.75168 -150,100.00336 -150,100.00336 0,150.09652 0,150.09652 2.8442,-1.8482 c 1.56432,-1.01651 69.04652,-45.7232 149.96046,-99.3482 z M 331.00579,-86.93514 c 88.75817,-54.59756 161.08031,-99.56414 160.71587,-99.92574 -0.36443,-0.3616 -73.45011,-23.04378 -162.41261,-50.40485 l -161.75,-49.74739 -161.75,49.74739 c -88.9625,27.36107 -162.04837,50.04325 -162.41303,50.40485 -0.95319,0.94516 323.40719,200.26605 324.94716,199.68148 0.70627,-0.2681 73.90445,-45.15818 162.66261,-99.75574 z"
         id="path3268"
         inkscape:connector-curvature="0" />
    </g>
    <path
       style="fill:#ffffff;fill-opacity:1;stroke:none"
       d="M 175.33569,84.773181 C 154.59498,72.070364 134.43228,59.539446 134.43228,59.352113 c 0,-0.147578 19.67404,-6.301609 46.48929,-14.541823 l 7.97723,-2.451369 20.93839,6.460303 c 33.1358,10.223677 33.69095,10.397244 33.68036,10.530211 -0.023,0.288309 -54.32955,33.60559 -54.71543,33.568101 -0.11022,-0.01071 -6.17012,-3.675667 -13.46643,-8.144355 z"
       id="path3290"
       inkscape:connector-curvature="0" />
    <path
       style="fill:#ffffff;fill-opacity:1;stroke:none"
       d="m 193.39994,127.79679 0,-25.38834 25.37913,-16.920686 c 13.95852,-9.306378 25.43638,-16.920688 25.50635,-16.920688 0.18319,0 0.0961,45.326104 -0.0931,48.461464 l -0.15846,2.62579 -24.875,16.50982 c -13.68126,9.08039 -25.07388,16.62482 -25.31695,16.76539 -0.41966,0.2427 -0.44194,-1.02438 -0.44194,-25.13275 z"
       id="path3292"
       inkscape:connector-curvature="0" />
    <path
       style="fill:#ffffff;fill-opacity:1;stroke:none"
       d="m 158.99161,135.8509 -25.31694,-16.90374 0,-25.404243 0,-25.404247 0.7307,0.466742 c 0.40189,0.256707 11.81973,7.853481 25.37298,16.88172 l 24.64226,16.414978 0.007,25.44322 c 0.004,13.99377 -0.0213,25.43558 -0.056,25.42626 -0.0347,-0.009 -11.45576,-7.62364 -25.38008,-16.92069 l 10e-6,0 z"
       id="path3294"
       inkscape:connector-curvature="0" />
    <rect
       style="fill:#000000;fill-opacity:1;stroke:none"
       id="rect2993"
       width="9.0913725"
       height="61.619305"
       x="152.67354"
       y="79.730339" />
    <rect
       style="fill:#000000;fill-opacity:1;stroke:none"
       id="rect3047"
       width="72.754158"
       height="9.7527742"
       x="164.86383"
       y="-34.516705"
       transform="matrix(0.89592343,0.44420851,-0.37589609,0.92666182,0,0)"
       ry="4.8763871" />
    <rect
       style="fill:#000000;fill-opacity:1;stroke:none"
       id="rect3047-7"
       width="72.754158"
       height="9.7527742"
       x="83.047394"
       y="144.17061"
       transform="matrix(0.86505649,-0.50167446,0.5650224,0.82507557,0,0)"
       ry="4.8763871" />
    <rect
       style="fill:#000000;fill-opacity:1;stroke:none"
       id="rect2993-4"
       width="9.0913725"
       height="61.619305"
       x="216.81822"
       y="78.720184" />
  </g>
</svg>
